<svg width="40" height="40" viewBox="0 0 40 40" fill="none" xmlns="http://www.w3.org/2000/svg">
<path d="M33.0877 23.0412H39.423C39.4984 23.0424 39.5732 23.0278 39.6432 22.9984C39.7132 22.9689 39.777 22.9252 39.8309 22.8697C39.8832 22.8158 39.9247 22.7512 39.9527 22.68C39.9807 22.6087 39.9948 22.5323 39.994 22.4552V17.6526C39.9958 17.5732 39.9823 17.4943 39.9543 17.4206C39.9262 17.3469 39.8843 17.2799 39.8309 17.2237C39.7781 17.1657 39.7149 17.1193 39.6448 17.0874C39.5748 17.0555 39.4994 17.0387 39.423 17.0379H30.5454L23.5302 0.485976C23.4785 0.342949 23.3828 0.222194 23.2583 0.142923C23.139 0.0535551 22.9969 0.00378801 22.8505 0H17.1269C16.9827 0.00547518 16.8423 0.0497641 16.719 0.128637C16.5928 0.215933 16.4935 0.340143 16.4335 0.485976L9.43203 17.0236H0.540769C0.468843 17.01 0.395166 17.01 0.323241 17.0236C0.25452 17.063 0.190587 17.111 0.132888 17.1666C0.0798145 17.224 0.0382172 17.2921 0.0105364 17.3667C-0.00351212 17.447 -0.00351212 17.5294 0.0105364 17.6097V22.4123C0.0134482 22.5741 0.0769635 22.7282 0.18728 22.8411C0.238604 22.8962 0.300005 22.9398 0.367759 22.9692C0.435512 22.9987 0.508231 23.0135 0.581552 23.0127H6.93048L0.0649287 39.2359C0.0518703 39.3259 0.0518703 39.4174 0.0649287 39.5074C0.073972 39.605 0.106754 39.6986 0.160105 39.779C0.210376 39.8632 0.280656 39.9322 0.364025 39.9791C0.449146 39.9985 0.537215 39.9985 0.622336 39.9791H5.73414C5.88327 39.9783 6.02921 39.9337 6.15559 39.8505C6.27752 39.7682 6.37242 39.6484 6.42747 39.5074L20.0227 7.28971L33.6178 39.5074C33.6729 39.6484 33.7678 39.7682 33.8898 39.8505C34.0152 39.936 34.1618 39.9807 34.3112 39.9791H39.4094C39.4981 40.007 39.5926 40.007 39.6813 39.9791C39.7713 39.937 39.8471 39.8672 39.8988 39.779C39.952 39.6995 39.9805 39.6046 39.9804 39.5074C40.0065 39.4093 40.0065 39.3055 39.9804 39.2073L33.0877 23.0412Z" fill="#273339"/>
</svg>
